<svg width="19" height="23" viewBox="0 0 19 23" fill="none" xmlns="http://www.w3.org/2000/svg">
<path d="M18.0068 15.2809C18.4739 15.7575 18.8612 16.2865 18.9663 16.9626C18.9887 17.1066 19 17.2519 19 17.3974C19 17.5429 18.9887 17.6882 18.9663 17.8323C18.8612 18.5083 18.4739 19.0373 18.0068 19.514C17.5516 19.9785 16.9126 20.4974 16.1382 21.1263L14.0669 22.8085C13.6931 23.1121 13.1499 23.0478 12.8536 22.665C12.5572 22.2821 12.62 21.7257 12.9937 21.4222L15.0238 19.7735C15.8345 19.115 16.3895 18.6626 16.7666 18.282L2.01515 18.282C1.53818 18.282 1.15152 17.886 1.15152 17.3974C1.15152 16.9089 1.53818 16.5128 2.01515 16.5128L16.7666 16.5128C16.3895 16.1322 15.8345 15.6798 15.0238 15.0214L12.9937 13.3726C12.62 13.0691 12.5572 12.5127 12.8536 12.1299C13.1499 11.7471 13.6931 11.6828 14.0669 11.9863L16.1382 13.6686C16.9126 14.2975 17.5516 14.8164 18.0068 15.2809Z" fill="#12181E"/>
<path d="M16.9848 6.48719C17.4618 6.48719 17.8485 6.09114 17.8485 5.60258C17.8485 5.11402 17.4618 4.71797 16.9848 4.71797L2.23339 4.71797C2.61045 4.3374 3.16549 3.88496 3.97618 3.22655L6.00627 1.57781C6.38002 1.27427 6.44277 0.717866 6.14643 0.335043C5.85009 -0.0477804 5.30687 -0.112054 4.93313 0.191484L2.86178 1.87373C2.08741 2.50261 1.44842 3.02154 0.993206 3.48602C0.526066 3.96266 0.13882 4.49169 0.0336626 5.16774C0.0112608 5.31176 1.66881e-06 5.45705 1.66245e-06 5.60258C1.65609e-06 5.74811 0.0112607 5.8934 0.0336625 6.03743C0.138822 6.71347 0.526067 7.24251 0.993206 7.71915C1.44842 8.18363 2.08742 8.70256 2.86179 9.33144L4.93313 11.0137C5.30687 11.3172 5.85009 11.2529 6.14643 10.8701C6.44277 10.4873 6.38002 9.93089 6.00627 9.62735L3.97618 7.97862C3.16549 7.32021 2.61045 6.86776 2.23339 6.48719L16.9848 6.48719Z" fill="#12181E"/>
</svg>
