<svg width="23" height="23" viewBox="0 0 23 23" fill="none" xmlns="http://www.w3.org/2000/svg">
<circle cx="11.5" cy="11.5" r="11.5" fill="#F6F6F6"/>
<path d="M15.8902 7.1098C15.8199 7.03949 15.7245 7 15.6251 7C15.5256 7 15.4303 7.03949 15.3599 7.1098L11.5 10.9697L7.64006 7.1098C7.56973 7.03949 7.47436 7 7.37493 7C7.27549 7 7.18012 7.03949 7.1098 7.1098C7.03949 7.18012 7 7.27549 7 7.37493C7 7.47436 7.03949 7.56973 7.1098 7.64006L10.9697 11.5L7.1098 15.3599C7.03949 15.4303 7 15.5256 7 15.6251C7 15.7245 7.03949 15.8199 7.1098 15.8902C7.18012 15.9605 7.27549 16 7.37493 16C7.47436 16 7.56973 15.9605 7.64006 15.8902L11.5 12.0303L15.3599 15.8902C15.4303 15.9605 15.5256 16 15.6251 16C15.7245 16 15.8199 15.9605 15.8902 15.8902C15.9605 15.8199 16 15.7245 16 15.6251C16 15.5256 15.9605 15.4303 15.8902 15.3599L12.0303 11.5L15.8902 7.64006C15.9605 7.56973 16 7.47436 16 7.37493C16 7.27549 15.9605 7.18012 15.8902 7.1098Z" fill="#12181E"/>
<path d="M15.8902 7.1098C15.8199 7.03949 15.7245 7 15.6251 7C15.5256 7 15.4303 7.03949 15.3599 7.1098L11.5 10.9697L7.64006 7.1098C7.56973 7.03949 7.47436 7 7.37493 7C7.27549 7 7.18012 7.03949 7.1098 7.1098C7.03949 7.18012 7 7.27549 7 7.37493C7 7.47436 7.03949 7.56973 7.1098 7.64006L10.9697 11.5L7.1098 15.3599C7.03949 15.4303 7 15.5256 7 15.6251C7 15.7245 7.03949 15.8199 7.1098 15.8902C7.18012 15.9605 7.27549 16 7.37493 16C7.47436 16 7.56973 15.9605 7.64006 15.8902L11.5 12.0303L15.3599 15.8902C15.4303 15.9605 15.5256 16 15.6251 16C15.7245 16 15.8199 15.9605 15.8902 15.8902C15.9605 15.8199 16 15.7245 16 15.6251C16 15.5256 15.9605 15.4303 15.8902 15.3599L12.0303 11.5L15.8902 7.64006C15.9605 7.56973 16 7.47436 16 7.37493C16 7.27549 15.9605 7.18012 15.8902 7.1098Z" fill="#12181E"/>
</svg>
