<svg width="16" height="16" viewBox="0 0 16 16" fill="none" xmlns="http://www.w3.org/2000/svg">
<path d="M11.2001 8.72009V12.0801C11.2001 14.8802 10.0801 16.0002 7.28009 16.0002H3.92005C1.12001 16.0002 0 14.8802 0 12.0801V8.72009C0 5.92006 1.12001 4.80005 3.92005 4.80005H7.28009C10.0801 4.80005 11.2001 5.92006 11.2001 8.72009Z" fill="#929EB2"/>
<path d="M12.0799 0H8.71991C6.33283 0 5.1725 0.819823 4.8818 2.7907C4.80053 3.34165 5.26285 3.80004 5.81977 3.80004H7.27989C10.6399 3.80004 12.1999 5.36006 12.1999 8.7201V10.1802C12.1999 10.7371 12.6583 11.1995 13.2093 11.1182C15.1802 10.8275 16 9.66716 16 7.28009V3.92005C16 1.12001 14.88 0 12.0799 0Z" fill="#929EB2"/>
</svg>
