<svg width="14" height="15" viewBox="0 0 14 15" fill="none" xmlns="http://www.w3.org/2000/svg">
<path d="M13.1266 2.77544C12.0038 2.66386 10.8811 2.58018 9.75139 2.51742V2.51045L9.59798 1.6039C9.49338 0.962338 9.33996 0 7.70817 0H5.88112C4.25631 0 4.10289 0.920497 3.99131 1.59692L3.84487 2.48953C3.19634 2.53137 2.54781 2.57321 1.89928 2.63597L0.476689 2.77544C0.183803 2.80333 -0.0254005 3.06135 0.00249338 3.34726C0.0303872 3.63317 0.281432 3.84238 0.574317 3.81448L1.9969 3.67502C5.651 3.3124 9.33299 3.45186 13.0289 3.82146C13.0498 3.82146 13.0638 3.82146 13.0847 3.82146C13.3497 3.82146 13.5798 3.61923 13.6077 3.34726C13.6286 3.06135 13.4194 2.80333 13.1266 2.77544Z" fill="#FF8686"/>
<path d="M11.8435 4.80468C11.6761 4.63034 11.446 4.53271 11.2089 4.53271H2.39445C2.15735 4.53271 1.92026 4.63034 1.75987 4.80468C1.59948 4.97902 1.50882 5.21611 1.52277 5.46019L1.95512 12.615C2.03183 13.6749 2.12946 14.9999 4.5632 14.9999H9.04016C11.4739 14.9999 11.5715 13.6819 11.6482 12.615L12.0806 5.46716C12.0945 5.21611 12.0039 4.97902 11.8435 4.80468ZM7.95927 11.5062H5.63711C5.3512 11.5062 5.1141 11.2691 5.1141 10.9832C5.1141 10.6973 5.3512 10.4602 5.63711 10.4602H7.95927C8.24519 10.4602 8.48228 10.6973 8.48228 10.9832C8.48228 11.2691 8.24519 11.5062 7.95927 11.5062ZM8.54504 8.71679H5.05831C4.7724 8.71679 4.5353 8.4797 4.5353 8.19378C4.5353 7.90787 4.7724 7.67077 5.05831 7.67077H8.54504C8.83096 7.67077 9.06805 7.90787 9.06805 8.19378C9.06805 8.4797 8.83096 8.71679 8.54504 8.71679Z" fill="#FF8686"/>
</svg>
