<svg width="16" height="16" viewBox="0 0 16 16" fill="none" xmlns="http://www.w3.org/2000/svg">
<path d="M11.3577 0H4.65032C1.73687 0 0 1.736 0 4.648V11.344C0 14.264 1.73687 16 4.65032 16H11.3497C14.2631 16 16 14.264 16 11.352V4.648C16.008 1.736 14.2711 0 11.3577 0ZM4.00199 9.048C3.42571 9.048 2.95347 8.576 2.95347 8C2.95347 7.424 3.42571 6.952 4.00199 6.952C4.57828 6.952 5.05052 7.424 5.05052 8C5.05052 8.576 4.57828 9.048 4.00199 9.048ZM8.00399 9.048C7.4277 9.048 6.95547 8.576 6.95547 8C6.95547 7.424 7.4277 6.952 8.00399 6.952C8.58028 6.952 9.05251 7.424 9.05251 8C9.05251 8.576 8.58028 9.048 8.00399 9.048ZM12.006 9.048C11.4297 9.048 10.9575 8.576 10.9575 8C10.9575 7.424 11.4297 6.952 12.006 6.952C12.5823 6.952 13.0545 7.424 13.0545 8C13.0545 8.576 12.5823 9.048 12.006 9.048Z" fill="#1C1B20"/>
</svg>
