<svg width="13" height="15" viewBox="0 0 13 15" fill="none" xmlns="http://www.w3.org/2000/svg">
<path d="M13 1.51538V3.18231C13 3.78846 12.6221 4.54615 12.2442 4.925L8.99406 7.80423C8.54056 8.18307 8.23823 8.94077 8.23823 9.54692V12.805C8.23823 13.2596 7.93589 13.8658 7.55797 14.0931L6.4998 14.775C5.51722 15.3812 4.15671 14.6992 4.15671 13.4869V9.47115C4.15671 8.94077 3.85438 8.25885 3.55204 7.88L3.1968 7.50873C2.96249 7.25869 2.91714 6.87985 3.1061 6.58435L6.97598 0.356115C7.11203 0.136385 7.3539 0 7.61844 0H11.4883C12.3197 0 13 0.681923 13 1.51538Z" fill="#1C1B20"/>
<path d="M5.25306 1.15927L2.56984 5.47054C2.31286 5.88727 1.72331 5.94788 1.38318 5.59177L0.680253 4.84923C0.302335 4.47038 0 3.78846 0 3.33385V1.59115C0 0.681923 0.680252 0 1.51167 0H4.6106C5.20015 0 5.56295 0.651615 5.25306 1.15927Z" fill="#1C1B20"/>
</svg>
