<svg width="18" height="19" viewBox="0 0 18 19" fill="none" xmlns="http://www.w3.org/2000/svg">
<path d="M4.67336 0H7.0145C9.8959 0 11.6968 1.80088 11.6968 4.68228V8.32906H6.06904C5.69986 8.32906 5.39371 8.63521 5.39371 9.00439C5.39371 9.37357 5.69986 9.67972 6.06904 9.67972H11.6968V13.3265C11.6968 16.2079 9.8959 18.0088 7.0145 18.0088H4.68236C1.80095 18.0088 7.82013e-05 16.2079 7.82013e-05 13.3265V4.68228C-0.00892544 1.80088 1.79195 0 4.67336 0Z" fill="#FF8686"/>
<path d="M15.6948 8.32916L13.8309 6.46525C13.6958 6.33019 13.6328 6.1591 13.6328 5.98802C13.6328 5.81694 13.6958 5.63685 13.8309 5.51079C14.092 5.24966 14.5242 5.24966 14.7854 5.51079L17.8018 8.52726C18.063 8.78838 18.063 9.22059 17.8018 9.48172L14.7854 12.4982C14.5242 12.7593 14.092 12.7593 13.8309 12.4982C13.5698 12.2371 13.5698 11.8049 13.8309 11.5437L15.6948 9.67982H11.6969V8.32916H15.6948Z" fill="#FF8686"/>
</svg>
