<svg width="12" height="12" viewBox="0 0 12 12" fill="none" xmlns="http://www.w3.org/2000/svg">
<path d="M5.72151 11.4417C2.5677 11.4417 0 8.87429 0 5.72085C0 2.5674 2.5677 0 5.72151 0C8.87532 0 11.443 2.5674 11.443 5.72085C11.443 8.87429 8.87532 11.4417 5.72151 11.4417ZM5.72151 0.837197C3.02542 0.837197 0.837294 3.03065 0.837294 5.72085C0.837294 8.41104 3.02542 10.6045 5.72151 10.6045C8.4176 10.6045 10.6057 8.41104 10.6057 5.72085C10.6057 3.03065 8.4176 0.837197 5.72151 0.837197Z" fill="#929EB2"/>
<path d="M11.5827 11.9997C11.4767 11.9997 11.3706 11.9606 11.2869 11.8769L10.1705 10.7606C10.0086 10.5988 10.0086 10.3309 10.1705 10.169C10.3324 10.0071 10.6003 10.0071 10.7622 10.169L11.8786 11.2853C12.0404 11.4471 12.0404 11.715 11.8786 11.8769C11.7948 11.9606 11.6888 11.9997 11.5827 11.9997Z" fill="#929EB2"/>
</svg>
