<svg width="18" height="17" viewBox="0 0 18 17" fill="none" xmlns="http://www.w3.org/2000/svg">
<path d="M15.6947 6.32916L13.8308 4.46525C13.6957 4.33019 13.6327 4.1591 13.6327 3.98802C13.6327 3.81694 13.6957 3.63685 13.8308 3.51079C14.0919 3.24966 14.5241 3.24966 14.7852 3.51079L17.8017 6.52726C18.0628 6.78838 18.0628 7.22059 17.8017 7.48172L14.7852 10.4982C14.5241 10.7593 14.0919 10.7593 13.8308 10.4982C13.5697 10.2371 13.5697 9.80485 13.8308 9.54373L15.6947 7.67982H11.6967V6.32916H15.6947Z" fill="#1C1B20"/>
<path d="M13.5 0H4.5C1.8 0 0 1.77702 0 4.44255V9.7736C0 12.4391 1.8 14.2161 4.5 14.2161V16.1087C4.5 16.8195 5.301 17.246 5.895 16.8461L9.9 14.2161H13.5C16.2 14.2161 18 12.4391 18 9.7736V4.44255C18 1.77702 16.2 0 13.5 0ZM9 10.8132C8.622 10.8132 8.325 10.5111 8.325 10.1468C8.325 9.78249 8.622 9.48039 9 9.48039C9.378 9.48039 9.675 9.78249 9.675 10.1468C9.675 10.5111 9.378 10.8132 9 10.8132ZM10.134 7.12584C9.783 7.35686 9.675 7.5079 9.675 7.75669V7.94327C9.675 8.30756 9.369 8.60965 9 8.60965C8.631 8.60965 8.325 8.30756 8.325 7.94327V7.75669C8.325 6.72601 9.09 6.21956 9.378 6.02409C9.711 5.80196 9.819 5.65092 9.819 5.41991C9.819 4.97565 9.45 4.61136 9 4.61136C8.55 4.61136 8.181 4.97565 8.181 5.41991C8.181 5.78419 7.875 6.08629 7.506 6.08629C7.137 6.08629 6.831 5.78419 6.831 5.41991C6.831 4.23819 7.803 3.2786 9 3.2786C10.197 3.2786 11.169 4.23819 11.169 5.41991C11.169 6.43281 10.413 6.93926 10.134 7.12584Z" fill="#1C1B20"/>
</svg>
