<svg width="16" height="16" viewBox="0 0 16 16" fill="none" xmlns="http://www.w3.org/2000/svg">
<path d="M6.36145 6.77015C6.36145 7.18653 6.47711 7.24822 6.73928 7.34075L7.13253 7.47954V6.1687H6.90121C6.6082 6.1687 6.36145 6.43858 6.36145 6.77015Z" fill="#1C1B20"/>
<path d="M8.28918 10.4097H8.52051C8.82123 10.4097 9.06027 10.1398 9.06027 9.80827C9.06027 9.39189 8.94461 9.3302 8.68244 9.23767L8.28918 9.09888V10.4097Z" fill="#1C1B20"/>
<path d="M13.5557 3.26174L11.9749 4.84247C11.8593 4.95813 11.7128 5.0121 11.5663 5.0121C11.4198 5.0121 11.2733 4.95813 11.1576 4.84247C10.934 4.61885 10.934 4.24873 11.1576 4.02512L12.7383 2.44439C11.3812 1.28777 9.63084 0.578369 7.71084 0.578369C3.45446 0.578369 0 4.03283 0 8.28921C0 12.5456 3.45446 16.0001 7.71084 16.0001C11.9672 16.0001 15.4217 12.5456 15.4217 8.28921C15.4217 6.36921 14.7123 4.61885 13.5557 3.26174ZM9.06024 8.15042C9.55374 8.32777 10.2169 8.68247 10.2169 9.81596C10.2169 10.7798 9.45349 11.574 8.52048 11.574H8.28916V11.7668C8.28916 12.0829 8.02699 12.3451 7.71084 12.3451C7.3947 12.3451 7.13253 12.0829 7.13253 11.7668V11.574H7.07084C6.0453 11.574 5.20482 10.7104 5.20482 9.64632C5.20482 9.32247 5.46699 9.0603 5.78313 9.0603C6.09928 9.0603 6.36145 9.32247 6.36145 9.63861C6.36145 10.0627 6.67759 10.4097 7.07084 10.4097H7.13253V8.69789L6.36145 8.42801C5.86795 8.25066 5.20482 7.89596 5.20482 6.76247C5.20482 5.79861 5.96819 5.00439 6.90121 5.00439H7.13253V4.81933C7.13253 4.50319 7.3947 4.24102 7.71084 4.24102C8.02699 4.24102 8.28916 4.50319 8.28916 4.81933V5.0121H8.35084C9.37639 5.0121 10.2169 5.87572 10.2169 6.93982C10.2169 7.25596 9.9547 7.51813 9.63855 7.51813C9.32241 7.51813 9.06024 7.25596 9.06024 6.93982C9.06024 6.51572 8.7441 6.16873 8.35084 6.16873H8.28916V7.88054L9.06024 8.15042Z" fill="#1C1B20"/>
<path d="M15.9537 0.354699C15.892 0.215904 15.7841 0.100241 15.6376 0.0385542C15.5682 0.0154217 15.4988 0 15.4217 0H12.3373C12.0212 0 11.759 0.262169 11.759 0.578313C11.759 0.894458 12.0212 1.15663 12.3373 1.15663H14.026L12.7383 2.44434C13.0313 2.6988 13.3012 2.96867 13.5557 3.26169L14.8434 1.97398V3.66265C14.8434 3.9788 15.1055 4.24096 15.4217 4.24096C15.7378 4.24096 16 3.9788 16 3.66265V0.578313C16 0.501205 15.9846 0.431807 15.9537 0.354699Z" fill="#1C1B20"/>
</svg>
