<svg width="42" height="42" viewBox="0 0 42 42" fill="none" xmlns="http://www.w3.org/2000/svg">
<rect width="42" height="42" rx="8" fill="#F6F6F6"/>
<path d="M21.0002 27.4198C22.0805 27.4198 22.9562 26.5441 22.9562 25.4638C22.9562 24.3835 22.0805 23.5078 21.0002 23.5078C19.9199 23.5078 19.0442 24.3835 19.0442 25.4638C19.0442 26.5441 19.9199 27.4198 21.0002 27.4198Z" fill="#12181E"/>
<path d="M28.536 18.036V16.536C28.536 13.296 27.756 9 21 9C14.244 9 13.464 13.296 13.464 16.536V18.036C10.104 18.456 9 20.16 9 24.348V26.58C9 31.5 10.5 33 15.42 33H26.58C31.5 33 33 31.5 33 26.58V24.348C33 20.16 31.896 18.456 28.536 18.036ZM21 29.088C18.996 29.088 17.376 27.456 17.376 25.464C17.376 23.46 19.008 21.84 21 21.84C22.992 21.84 24.624 23.472 24.624 25.464C24.624 27.468 23.004 29.088 21 29.088ZM15.42 17.928C15.324 17.928 15.24 17.928 15.144 17.928V16.536C15.144 13.02 16.14 10.68 21 10.68C25.86 10.68 26.856 13.02 26.856 16.536V17.94C26.76 17.94 26.676 17.94 26.58 17.94H15.42V17.928Z" fill="#12181E"/>
</svg>
