<svg width="42" height="42" viewBox="0 0 42 42" fill="none" xmlns="http://www.w3.org/2000/svg">
<rect width="42" height="42" rx="8" fill="#F6F6F6"/>
<path d="M27 11H15C11.4 11 9 12.7647 9 16.8824V25.1176C9 29.2353 11.4 31 15 31H27C30.6 31 33 29.2353 33 25.1176V16.8824C33 12.7647 30.6 11 27 11ZM27.564 18.1647L23.808 21.1059C23.016 21.7294 22.008 22.0353 21 22.0353C19.992 22.0353 18.972 21.7294 18.192 21.1059L14.436 18.1647C14.052 17.8588 13.992 17.2941 14.292 16.9176C14.604 16.5412 15.168 16.4706 15.552 16.7765L19.308 19.7176C20.22 20.4353 21.768 20.4353 22.68 19.7176L26.436 16.7765C26.82 16.4706 27.396 16.5294 27.696 16.9176C28.008 17.2941 27.948 17.8588 27.564 18.1647Z" fill="#12181E"/>
</svg>
