<svg width="42" height="42" viewBox="0 0 42 42" fill="none" xmlns="http://www.w3.org/2000/svg">
<rect width="42" height="42" rx="8" fill="#F6F6F6"/>
<path d="M26.3266 9H16.6848C12.4967 9 10 11.604 10 15.972V26.016C10 30.396 12.4967 33 16.6848 33H26.3151C30.5032 33 33 30.396 33 26.028V15.972C33.0115 11.604 30.5147 9 26.3266 9ZM27.2586 27.564C25.2911 27.564 23.4502 26.676 21.9775 25.032C20.3091 26.604 18.1346 27.564 15.7529 27.564C15.2811 27.564 14.8899 27.156 14.8899 26.664C14.8899 26.172 15.2811 25.764 15.7529 25.764C19.7454 25.764 23.0475 22.464 23.4732 18.24H21.5057H15.7644C15.2926 18.24 14.9014 17.832 14.9014 17.34C14.9014 16.848 15.2926 16.452 15.7644 16.452H20.6428V15.336C20.6428 14.844 21.034 14.436 21.5057 14.436C21.9775 14.436 22.3687 14.844 22.3687 15.336V16.452H24.3131C24.3361 16.452 24.3592 16.44 24.3822 16.44C24.4052 16.44 24.4282 16.452 24.4512 16.452H27.2471C27.7188 16.452 28.11 16.86 28.11 17.352C28.11 17.844 27.7188 18.252 27.2471 18.252H25.1991C25.0265 20.304 24.2901 22.188 23.1626 23.724C24.3131 25.056 25.7513 25.776 27.2586 25.776C27.7303 25.776 28.1215 26.184 28.1215 26.676C28.1215 27.168 27.7303 27.564 27.2586 27.564Z" fill="#1C1B20"/>
</svg>
