<svg width="42" height="42" viewBox="0 0 42 42" fill="none" xmlns="http://www.w3.org/2000/svg">
<rect width="42" height="42" rx="8" fill="#F6F6F6"/>
<path d="M29.5251 10.0883L22.3611 7.21935C21.6186 6.92688 20.4073 6.92688 19.6648 7.21935L12.5009 10.0883C11.1202 10.6454 10 12.3723 10 13.946V25.2268C10 26.3549 10.6903 27.8451 11.537 28.5136L18.701 34.2375C19.9644 35.2542 22.0355 35.2542 23.2989 34.2375L30.4629 28.5136C31.3095 27.8311 31.9999 26.3549 31.9999 25.2268V13.946C32.0129 12.3723 30.8927 10.6454 29.5251 10.0883ZM25.5393 17.8873L19.9384 23.8759C19.743 24.0848 19.4955 24.1823 19.248 24.1823C19.0005 24.1823 18.7531 24.0848 18.5577 23.8759L16.4736 21.6197C16.0959 21.2159 16.0959 20.5474 16.4736 20.1435C16.8514 19.7396 17.4766 19.7396 17.8543 20.1435L19.2611 21.6476L24.1716 16.3972C24.5494 15.9933 25.1746 15.9933 25.5523 16.3972C25.9301 16.801 25.9301 17.4835 25.5393 17.8873Z" fill="#12181E"/>
</svg>
