<svg width="42" height="42" viewBox="0 0 42 42" fill="none" xmlns="http://www.w3.org/2000/svg">
<rect width="42" height="42" rx="8" fill="#F6F6F6"/>
<path d="M19.3981 20.064L16.71 9.468C16.6489 9.192 16.3923 9 16.0991 9C12.1769 9 9 12.12 9 15.972V22.812C9 23.22 9.40322 23.52 9.80644 23.4L18.9705 20.796C19.2882 20.712 19.4837 20.388 19.3981 20.064Z" fill="#12181E"/>
<path d="M20.1435 22.8506C20.0579 22.5146 19.7036 22.3106 19.3615 22.4066L9.45209 25.2386C9.18328 25.3226 9 25.5626 9 25.8386V25.8626C9 29.7146 12.1769 32.8346 16.0991 32.8346H21.8663C22.2695 32.8346 22.575 32.4626 22.4772 32.0666L20.1435 22.8506Z" fill="#12181E"/>
<path d="M25.9708 9H19.0143C18.6151 9 18.3126 9.372 18.4094 9.76799L24.1439 32.5318C24.2165 32.8078 24.4585 32.9998 24.7489 32.9998H25.9587C29.8543 32.9998 32.9998 29.8798 32.9998 26.0279V15.9719C32.9998 12.12 29.8543 9 25.9708 9Z" fill="#12181E"/>
</svg>
