<svg width="42" height="42" viewBox="0 0 42 42" fill="none" xmlns="http://www.w3.org/2000/svg">
<rect width="42" height="42" rx="8" fill="#F6F6F6"/>
<path d="M15.7801 31.692C15.7441 31.692 15.6961 31.716 15.6601 31.716C13.3321 30.564 11.4361 28.656 10.2721 26.328C10.2721 26.292 10.2961 26.244 10.2961 26.208C11.7601 26.64 13.2721 26.964 14.7721 27.216C15.0361 28.728 15.3481 30.228 15.7801 31.692Z" fill="#1C1B20"/>
<path d="M31.7279 26.34C30.5399 28.728 28.5599 30.66 26.1479 31.824C26.6039 30.3 26.9879 28.764 27.2399 27.216C28.7519 26.964 30.2399 26.64 31.7039 26.208C31.6919 26.256 31.7279 26.304 31.7279 26.34Z" fill="#1C1B20"/>
<path d="M31.8239 15.8517C30.3119 15.3957 28.7879 15.0237 27.2399 14.7597C26.9879 13.2118 26.6159 11.6758 26.1479 10.1758C28.6319 11.3638 30.6359 13.3678 31.8239 15.8517Z" fill="#1C1B20"/>
<path d="M15.78 10.3085C15.348 11.7724 15.036 13.2604 14.784 14.7724C13.236 15.0124 11.7 15.3964 10.176 15.8524C11.34 13.4404 13.272 11.4605 15.66 10.2725C15.696 10.2725 15.744 10.3085 15.78 10.3085Z" fill="#1C1B20"/>
<path d="M25.1877 14.508C22.4037 14.196 19.5957 14.196 16.8118 14.508C17.1118 12.864 17.4958 11.22 18.0358 9.63599C18.0598 9.54 18.0478 9.468 18.0598 9.372C19.0078 9.144 19.9797 9 20.9997 9C22.0077 9 22.9917 9.144 23.9277 9.372C23.9397 9.468 23.9397 9.54 23.9637 9.63599C24.5037 11.232 24.8877 12.864 25.1877 14.508Z" fill="#1C1B20"/>
<path d="M14.508 25.1875C12.852 24.8875 11.22 24.5035 9.63599 23.9635C9.54 23.9395 9.468 23.9515 9.372 23.9395C9.144 22.9915 9 22.0195 9 20.9995C9 19.9915 9.144 19.0075 9.372 18.0715C9.468 18.0595 9.54 18.0595 9.63599 18.0355C11.232 17.5075 12.852 17.1115 14.508 16.8115C14.208 19.5955 14.208 22.4035 14.508 25.1875Z" fill="#1C1B20"/>
<path d="M33 20.9995C33 22.0195 32.856 22.9915 32.628 23.9395C32.532 23.9515 32.46 23.9395 32.364 23.9635C30.768 24.4915 29.1361 24.8875 27.4921 25.1875C27.8041 22.4035 27.8041 19.5955 27.4921 16.8115C29.1361 17.1115 30.78 17.4955 32.364 18.0355C32.46 18.0595 32.532 18.0715 32.628 18.0715C32.856 19.0195 33 19.9915 33 20.9995Z" fill="#1C1B20"/>
<path d="M25.1877 27.4922C24.8877 29.1482 24.5037 30.7802 23.9637 32.3641C23.9397 32.4601 23.9397 32.5321 23.9277 32.6281C22.9917 32.8561 22.0077 33.0001 20.9997 33.0001C19.9797 33.0001 19.0078 32.8561 18.0598 32.6281C18.0478 32.5321 18.0598 32.4601 18.0358 32.3641C17.5078 30.7682 17.1118 29.1482 16.8118 27.4922C18.2038 27.6482 19.5957 27.7562 20.9997 27.7562C22.4037 27.7562 23.8077 27.6482 25.1877 27.4922Z" fill="#1C1B20"/>
<path d="M25.516 25.5161C22.5147 25.8948 19.4854 25.8948 16.4841 25.5161C16.1054 22.5148 16.1054 19.4855 16.4841 16.4842C19.4854 16.1055 22.5147 16.1055 25.516 16.4842C25.8947 19.4855 25.8947 22.5148 25.516 25.5161Z" fill="#1C1B20"/>
</svg>
