<svg width="18" height="19" viewBox="0 0 18 19" fill="none" xmlns="http://www.w3.org/2000/svg">
<g id="Group 12">
<path id="Vector" d="M13.7647 0H4.23529C1.89529 0 0 1.46122 0 3.26531V9.18367C0 9.63265 0.476471 10 1.05882 10H16.9412C17.5235 10 18 9.63265 18 9.18367V3.26531C18 1.46122 16.1047 0 13.7647 0ZM4.23529 8.77551H3.17647C2.74235 8.77551 2.38235 8.49796 2.38235 8.16327C2.38235 7.82857 2.74235 7.55102 3.17647 7.55102H4.23529C4.66941 7.55102 5.02941 7.82857 5.02941 8.16327C5.02941 8.49796 4.66941 8.77551 4.23529 8.77551ZM4.23529 6.73469H3.17647C2.74235 6.73469 2.38235 6.45714 2.38235 6.12245C2.38235 5.78776 2.74235 5.5102 3.17647 5.5102H4.23529C4.66941 5.5102 5.02941 5.78776 5.02941 6.12245C5.02941 6.45714 4.66941 6.73469 4.23529 6.73469ZM4.23529 4.69388H3.17647C2.74235 4.69388 2.38235 4.41633 2.38235 4.08163C2.38235 3.74694 2.74235 3.46939 3.17647 3.46939H4.23529C4.66941 3.46939 5.02941 3.74694 5.02941 4.08163C5.02941 4.41633 4.66941 4.69388 4.23529 4.69388Z" fill="#1C1B20"/>
<path id="Vector_2" d="M0 12.6177V13.9412C0 16.2812 1.89529 18.1765 4.23529 18.1765H13.7647C16.1047 18.1765 18 16.2812 18 13.9412V12.6177C18 12.0353 17.5235 11.5588 16.9412 11.5588H1.05882C0.476471 11.5588 0 12.0353 0 12.6177ZM14.5165 15.4871C14.3153 15.6777 14.04 15.7941 13.7647 15.7941C13.4894 15.7941 13.2141 15.6777 13.0129 15.4871C12.8224 15.2859 12.7059 15.0106 12.7059 14.7353C12.7059 14.46 12.8224 14.1847 13.0129 13.9835C13.4047 13.5918 14.1141 13.5918 14.5165 13.9835C14.7071 14.1847 14.8235 14.46 14.8235 14.7353C14.8235 15.0106 14.7071 15.2859 14.5165 15.4871Z" fill="#1C1B20"/>
</g>
</svg>
