<svg width="18" height="18" viewBox="0 0 18 18" fill="none" xmlns="http://www.w3.org/2000/svg">
<path d="M12.7774 0H5.23161C1.95397 0 0 1.953 0 5.229V12.762C0 16.047 1.95397 18 5.23161 18H12.7684C16.046 18 18 16.047 18 12.771V5.229C18.009 1.953 16.055 0 12.7774 0ZM13.5067 13.725H4.50224C4.13306 13.725 3.82691 13.419 3.82691 13.05C3.82691 12.681 4.13306 12.375 4.50224 12.375H13.5067C13.8759 12.375 14.1821 12.681 14.1821 13.05C14.1821 13.419 13.8759 13.725 13.5067 13.725ZM13.5067 9.675H4.50224C4.13306 9.675 3.82691 9.369 3.82691 9C3.82691 8.631 4.13306 8.325 4.50224 8.325H13.5067C13.8759 8.325 14.1821 8.631 14.1821 9C14.1821 9.369 13.8759 9.675 13.5067 9.675ZM13.5067 5.625H4.50224C4.13306 5.625 3.82691 5.319 3.82691 4.95C3.82691 4.581 4.13306 4.275 4.50224 4.275H13.5067C13.8759 4.275 14.1821 4.581 14.1821 4.95C14.1821 5.319 13.8759 5.625 13.5067 5.625Z" fill="#1C1B20"/>
</svg>
