<svg width="18" height="18" viewBox="0 0 18 18" fill="none" xmlns="http://www.w3.org/2000/svg">
<path id="Vector" d="M12.7774 0H5.23161C1.95397 0 0 1.953 0 5.229V12.762C0 16.047 1.95397 18 5.23161 18H12.7684C16.046 18 18 16.047 18 12.771V5.229C18.009 1.953 16.055 0 12.7774 0ZM5.10554 3.15C5.10554 2.781 5.4117 2.475 5.78088 2.475C6.15006 2.475 6.45622 2.781 6.45622 3.15V6.66C6.45622 7.029 6.15006 7.335 5.78088 7.335C5.4117 7.335 5.10554 7.029 5.10554 6.66V3.15ZM6.80804 12.9727C6.60595 13.0661 6.45622 13.2572 6.45622 13.4798V14.85C6.45622 15.219 6.15006 15.525 5.78088 15.525C5.4117 15.525 5.10554 15.219 5.10554 14.85V13.4798C5.10554 13.2572 4.95578 13.0661 4.75377 12.9725C3.91268 12.583 3.33166 11.739 3.33166 10.755C3.33166 9.405 4.43021 8.298 5.78088 8.298C7.13155 8.298 8.23911 9.396 8.23911 10.755C8.23911 11.7391 7.65095 12.5832 6.80804 12.9727ZM12.9034 14.85C12.9034 15.219 12.5973 15.525 12.2281 15.525C11.8589 15.525 11.5528 15.219 11.5528 14.85V11.34C11.5528 10.971 11.8589 10.665 12.2281 10.665C12.5973 10.665 12.9034 10.971 12.9034 11.34V14.85ZM12.2281 9.693C10.8774 9.693 9.76987 8.595 9.76987 7.236C9.76987 6.25189 10.358 5.40775 11.2009 5.01832C11.403 4.92495 11.5528 4.73378 11.5528 4.51116V3.15C11.5528 2.781 11.8589 2.475 12.2281 2.475C12.5973 2.475 12.9034 2.781 12.9034 3.15V4.52016C12.9034 4.74278 13.0532 4.93391 13.2552 5.02746C14.0963 5.41695 14.6773 6.26101 14.6773 7.245C14.6773 8.595 13.5788 9.693 12.2281 9.693Z" fill="#1C1B20"/>
</svg>
