<svg width="18" height="19" viewBox="0 0 18 19" fill="none" xmlns="http://www.w3.org/2000/svg">
<g id="Group 10">
<g id="Group 11">
<path id="Vector" d="M4.5 0H3.6C0.9 0 0 1.611 0 3.6V4.5V17.1C0 17.847 0.846 18.27 1.44 17.82L2.979 16.668C3.339 16.398 3.843 16.434 4.167 16.758L5.661 18.261C6.012 18.612 6.588 18.612 6.939 18.261L8.451 16.749C8.766 16.434 9.27 16.398 9.621 16.668L11.16 17.82C11.754 18.261 12.6 17.838 12.6 17.1V1.8C12.6 0.81 13.41 0 14.4 0H4.5ZM8.325 10.575H4.275C3.906 10.575 3.6 10.269 3.6 9.9C3.6 9.531 3.906 9.225 4.275 9.225H8.325C8.694 9.225 9 9.531 9 9.9C9 10.269 8.694 10.575 8.325 10.575ZM9 6.975H3.6C3.231 6.975 2.925 6.669 2.925 6.3C2.925 5.931 3.231 5.625 3.6 5.625H9C9.369 5.625 9.675 5.931 9.675 6.3C9.675 6.669 9.369 6.975 9 6.975Z" fill="#1C1B20"/>
<path id="Vector_2" d="M14.4091 0V1.35C15.0031 1.35 15.5701 1.593 15.9841 1.998C16.4161 2.439 16.6501 3.006 16.6501 3.6V5.778C16.6501 6.444 16.3531 6.75 15.6781 6.75H13.9501V1.809C13.9501 1.557 14.1571 1.35 14.4091 1.35V0ZM14.4091 0C13.4101 0 12.6001 0.81 12.6001 1.809V8.1H15.6781C17.1001 8.1 18.0001 7.2 18.0001 5.778V3.6C18.0001 2.61 17.5951 1.71 16.9471 1.053C16.2901 0.405 15.3991 0.009 14.4091 0C14.4181 0 14.4091 0 14.4091 0Z" fill="#1C1B20"/>
</g>
</g>
</svg>
