<svg width="18" height="18" viewBox="0 0 18 18" fill="none" xmlns="http://www.w3.org/2000/svg">
<g id="Group 37832">
<path id="Vector (Stroke)" fill-rule="evenodd" clip-rule="evenodd" d="M17.3722 10.8838C17.7189 10.8838 18.0001 11.1649 18.0001 11.5117C18.0001 15.0985 15.0985 18.0001 11.5117 18.0001C11.2855 18.0001 11.0767 17.8784 10.9653 17.6815C10.8538 17.4847 10.8569 17.2431 10.9733 17.0491L11.8523 15.584C12.0308 15.2866 12.4165 15.1902 12.7138 15.3686C13.0112 15.547 13.1076 15.9327 12.9292 16.2301L12.702 16.6087C15.0204 16.0708 16.7443 13.9953 16.7443 11.5117C16.7443 11.1649 17.0254 10.8838 17.3722 10.8838Z" fill="#1C1B20"/>
<path id="Vector (Stroke)_2" fill-rule="evenodd" clip-rule="evenodd" d="M5.29802 1.39139C2.97971 1.92924 1.25581 4.00473 1.25581 6.48837C1.25581 6.83516 0.97469 7.11628 0.627907 7.11628C0.281124 7.11628 0 6.83516 0 6.48837C0 2.90159 2.90159 0 6.48837 0C6.71459 0 6.92332 0.121684 7.03478 0.318538C7.14623 0.515392 7.14319 0.756983 7.0268 0.950962L6.14773 2.41608C5.96931 2.71344 5.58361 2.80987 5.28625 2.63145C4.98888 2.45303 4.89246 2.06733 5.07088 1.76997L5.29802 1.39139Z" fill="#1C1B20"/>
<path id="Vector" d="M17.3721 2.46979V2.56188C17.3721 2.7963 17.1879 2.98049 16.9535 2.98049H9.4186C9.18419 2.98049 9 2.7963 9 2.56188V2.46979C9 0.996302 9.36837 0.62793 10.8586 0.62793H15.5135C17.0037 0.62793 17.3721 0.996302 17.3721 2.46979Z" fill="#1C1B20"/>
<path id="Vector_2" d="M9.4186 3.81763C9.18419 3.81763 9 4.00181 9 4.23623V5.07344V5.90228C9 7.37577 9.36837 7.74414 10.8586 7.74414H15.5135C17.0037 7.74414 17.3721 7.37577 17.3721 5.90228V5.07344V4.23623C17.3721 4.00181 17.1879 3.81763 16.9535 3.81763H9.4186Z" fill="#1C1B20"/>
<path id="Vector_3" d="M9.00002 12.0977V12.1898C9.00002 12.4242 8.81584 12.6084 8.58142 12.6084H1.04653C0.812116 12.6084 0.62793 12.4242 0.62793 12.1898V12.0977C0.62793 10.6242 0.996302 10.2559 2.48653 10.2559H7.14142C8.63165 10.2559 9.00002 10.6242 9.00002 12.0977Z" fill="#1C1B20"/>
<path id="Vector_4" d="M1.04653 13.4456C0.812116 13.4456 0.62793 13.6297 0.62793 13.8642V14.7014V15.5302C0.62793 17.0037 0.996302 17.3721 2.48653 17.3721H7.14142C8.63165 17.3721 9.00002 17.0037 9.00002 15.5302V14.7014V13.8642C9.00002 13.6297 8.81584 13.4456 8.58142 13.4456H1.04653Z" fill="#1C1B20"/>
</g>
</svg>
