<svg width="39" height="39" viewBox="0 0 39 39" fill="none" xmlns="http://www.w3.org/2000/svg">
<circle cx="19.5" cy="19.5" r="19.5" fill="#FF8686"/>
<path d="M12.776 28C12.3246 28 11.8732 27.8337 11.5168 27.4775C10.8277 26.7887 10.8277 25.6486 11.5168 24.9598L24.9647 11.5166C25.6537 10.8278 26.7942 10.8278 27.4832 11.5166C28.1723 12.2054 28.1723 13.3454 27.4832 14.0342L14.0353 27.4775C13.7027 27.8337 13.2275 28 12.776 28Z" fill="white"/>
<path d="M26.224 28C25.7725 28 25.3211 27.8337 24.9647 27.4775L11.5168 14.0342C10.8277 13.3454 10.8277 12.2054 11.5168 11.5166C12.2058 10.8278 13.3463 10.8278 14.0353 11.5166L27.4832 24.9598C28.1723 25.6486 28.1723 26.7887 27.4832 27.4775C27.1268 27.8337 26.6754 28 26.224 28Z" fill="white"/>
</svg>
