<svg width="116" height="22" viewBox="0 0 116 22" fill="none" xmlns="http://www.w3.org/2000/svg">
<g id="Group 2713">
<g id="Group 2712">
<path id="Vector" fill-rule="evenodd" clip-rule="evenodd" d="M12.7467 1.22461L10.4238 3.54744L15.9853 9.10896L21.5469 3.54744L19.224 1.22461L15.9853 4.46329L12.7467 1.22461Z" fill="#FF323A"/>
<g id="Group 2710">
<path id="Vector_2" fill-rule="evenodd" clip-rule="evenodd" d="M5.40261 0L0 5.40261L16 21.4026L32 5.40261L26.5974 0L16 10.5974L5.40261 0Z" fill="#FF323A"/>
</g>
</g>
<path id="Vector_3" d="M49.3838 17.2015L46.1678 12.8815H44.4318V17.2015H41.1118V5.2015H48.2398C49.1465 5.2015 49.9438 5.3615 50.6318 5.6815C51.3251 6.0015 51.8611 6.45483 52.2398 7.0415C52.6238 7.62283 52.8158 8.29484 52.8158 9.0575C52.8158 9.66017 52.6931 10.2095 52.4478 10.7055C52.2025 11.1961 51.8505 11.6121 51.3918 11.9535C50.9385 12.2948 50.4025 12.5428 49.7838 12.6975L53.2318 17.2015H49.3838ZM44.4318 7.6655V10.4495H47.7838C48.3065 10.4495 48.7171 10.3268 49.0158 10.0815C49.3145 9.83617 49.4638 9.49483 49.4638 9.0575C49.4638 8.62017 49.3145 8.27884 49.0158 8.0335C48.7225 7.78817 48.3118 7.6655 47.7838 7.6655H44.4318ZM61.4416 5.2015C62.4389 5.2015 63.3029 5.37217 64.0336 5.7135C64.7642 6.05483 65.3242 6.5375 65.7136 7.1615C66.1029 7.7855 66.2976 8.51084 66.2976 9.3375C66.2976 10.1641 66.1029 10.8895 65.7136 11.5135C65.3242 12.1375 64.7642 12.6201 64.0336 12.9615C63.3029 13.3028 62.4389 13.4735 61.4416 13.4735H58.0256V17.2015H54.7056V5.2015H61.4416ZM61.2496 10.8175C61.7829 10.8175 62.1989 10.6868 62.4976 10.4255C62.7962 10.1641 62.9456 9.8015 62.9456 9.3375C62.9456 8.8735 62.7962 8.51083 62.4976 8.2495C62.1989 7.98817 61.7829 7.8575 61.2496 7.8575H58.0256V10.8175H61.2496ZM80.5458 17.2015H77.0098L76.0098 14.8895H69.8098L68.8098 17.2015H65.2658L70.7298 5.2015H75.0898L80.5458 17.2015ZM72.9058 7.7295L70.9618 12.2255H74.8578L72.9058 7.7295ZM88.9758 5.2015H92.6478L87.0478 12.3375V17.2015H83.7278V12.3775L78.1038 5.2015H81.7758L85.3758 9.7935L88.9758 5.2015ZM92.8998 17.3695C92.5585 17.3695 92.2465 17.2895 91.9638 17.1295C91.6865 16.9641 91.4651 16.7428 91.2998 16.4655C91.1398 16.1828 91.0598 15.8708 91.0598 15.5295C91.0598 15.1881 91.1398 14.8788 91.2998 14.6015C91.4651 14.3188 91.6865 14.0975 91.9638 13.9375C92.2465 13.7721 92.5585 13.6895 92.8998 13.6895C93.2411 13.6895 93.5505 13.7721 93.8278 13.9375C94.1105 14.0975 94.3318 14.3188 94.4918 14.6015C94.6571 14.8788 94.7398 15.1881 94.7398 15.5295C94.7398 15.8708 94.6571 16.1828 94.4918 16.4655C94.3318 16.7428 94.1105 16.9641 93.8278 17.1295C93.5505 17.2895 93.2411 17.3695 92.8998 17.3695ZM96.4087 17.2015V5.2015H99.7287V17.2015H96.4087ZM108.564 17.4655C107.156 17.4655 105.913 17.2041 104.836 16.6815C103.758 16.1588 102.921 15.4255 102.324 14.4815C101.732 13.5321 101.436 12.4388 101.436 11.2015C101.436 9.96417 101.732 8.8735 102.324 7.9295C102.921 6.98017 103.758 6.24417 104.836 5.7215C105.913 5.19883 107.156 4.9375 108.564 4.9375C109.972 4.9375 111.214 5.19883 112.292 5.7215C113.369 6.24417 114.204 6.98017 114.796 7.9295C115.393 8.8735 115.692 9.96417 115.692 11.2015C115.692 12.4388 115.393 13.5321 114.796 14.4815C114.204 15.4255 113.369 16.1588 112.292 16.6815C111.214 17.2041 109.972 17.4655 108.564 17.4655ZM108.564 14.4975C109.332 14.4975 109.998 14.3641 110.564 14.0975C111.134 13.8308 111.572 13.4495 111.876 12.9535C112.185 12.4575 112.34 11.8735 112.34 11.2015C112.34 10.5295 112.185 9.9455 111.876 9.4495C111.572 8.9535 111.134 8.57217 110.564 8.3055C109.998 8.03883 109.332 7.9055 108.564 7.9055C107.796 7.9055 107.126 8.03883 106.556 8.3055C105.99 8.57217 105.553 8.9535 105.244 9.4495C104.94 9.9455 104.788 10.5295 104.788 11.2015C104.788 11.8735 104.94 12.4575 105.244 12.9535C105.553 13.4495 105.99 13.8308 106.556 14.0975C107.126 14.3641 107.796 14.4975 108.564 14.4975Z" fill="#1C1B20"/>
</g>
</svg>
