<svg width="31" height="31" viewBox="0 0 31 31" fill="none" xmlns="http://www.w3.org/2000/svg">
<circle cx="15.5" cy="15.5" r="15.5" fill="#EDF0F4"/>
<path d="M10.8322 15.4211C10.7881 16.1871 11.3777 16.8429 12.1437 16.887C12.1713 16.887 12.1988 16.887 12.2264 16.887C12.9979 16.887 13.6207 16.2643 13.6151 15.4928C13.6151 14.7213 12.9924 14.0985 12.2209 14.104C11.4824 14.104 10.8707 14.6827 10.8322 15.4211Z" fill="#0033AD"/>
<path d="M5.6409 15.063C5.39291 15.0465 5.17799 15.2393 5.16697 15.4873C5.15594 15.7353 5.34331 15.9502 5.5913 15.9613C5.83929 15.9778 6.0487 15.7849 6.06524 15.5369C6.08177 15.2889 5.88889 15.0795 5.6409 15.063Z" fill="#0033AD"/>
<path d="M10.744 7.34227C10.9644 7.23205 11.0526 6.95651 10.9424 6.73608C10.8322 6.51564 10.5566 6.42747 10.3362 6.53768C10.1157 6.6479 10.0276 6.91793 10.1378 7.13837C10.248 7.36431 10.518 7.458 10.744 7.34227C10.744 7.34227 10.7385 7.34227 10.744 7.34227Z" fill="#0033AD"/>
<path d="M12.1548 9.8057C12.4965 9.63486 12.6342 9.21603 12.4634 8.87436C12.2926 8.53269 11.8737 8.39492 11.5321 8.56575C11.1904 8.73659 11.0526 9.15542 11.2235 9.49709C11.3943 9.83876 11.8131 9.97653 12.1548 9.8057Z" fill="#0033AD"/>
<path d="M7.40437 11.4975C7.66889 11.6683 8.02158 11.5967 8.19793 11.3322C8.36877 11.0677 8.29713 10.715 8.03261 10.5386C7.76808 10.3678 7.41539 10.4394 7.23904 10.7039C7.06269 10.9685 7.13985 11.3267 7.40437 11.4975Z" fill="#0033AD"/>
<path d="M8.24766 14.8149C7.8619 14.7928 7.53676 15.0849 7.51472 15.4707C7.49268 15.8564 7.78475 16.1816 8.17051 16.2036C8.55627 16.2257 8.88141 15.9336 8.90346 15.5478C8.9255 15.1676 8.63343 14.8369 8.24766 14.8149Z" fill="#0033AD"/>
<path d="M7.4816 19.4827C7.20054 19.626 7.08482 19.9677 7.2281 20.2543C7.37138 20.5353 7.71306 20.651 7.99962 20.5078C8.28067 20.3645 8.3964 20.0228 8.25312 19.7362C8.10984 19.4552 7.76265 19.3395 7.4816 19.4827Z" fill="#0033AD"/>
<path d="M10.182 13.3765C10.5622 13.6245 11.0692 13.5198 11.3117 13.1396C11.5597 12.7593 11.455 12.2523 11.0747 12.0098C10.6945 11.7618 10.1875 11.8665 9.94501 12.2468C9.69702 12.6215 9.80172 13.1285 10.182 13.3765Z" fill="#0033AD"/>
<path d="M18.7512 9.7505C19.0709 9.95991 19.5062 9.87174 19.7157 9.55211C19.9251 9.23248 19.8369 8.79712 19.5173 8.58771C19.1976 8.3783 18.7623 8.46647 18.5529 8.7861C18.3379 9.11124 18.4261 9.54109 18.7512 9.7505Z" fill="#0033AD"/>
<path d="M20.1731 7.29823C20.3825 7.436 20.6581 7.37538 20.7959 7.16597C20.9336 6.95656 20.873 6.68101 20.6636 6.54324C20.4542 6.40547 20.1786 6.46609 20.0409 6.66999C19.9086 6.8794 19.9692 7.16046 20.1731 7.29823Z" fill="#0033AD"/>
<path d="M18.856 14.0931C18.09 14.0491 17.4287 14.6387 17.3901 15.4047C17.3461 16.1707 17.9357 16.832 18.7017 16.8706C18.7293 16.8706 18.7568 16.8706 18.7789 16.8706C19.5449 16.8706 20.1676 16.2479 20.1676 15.4764C20.1731 14.7434 19.5945 14.1317 18.856 14.0931Z" fill="#0033AD"/>
<path d="M12.6122 13.2774C12.8492 13.7458 13.3286 14.0434 13.8577 14.0434C14.6237 14.0434 15.2464 13.4207 15.2464 12.6492C15.2464 12.4343 15.1968 12.2193 15.0976 12.0209C14.7504 11.3321 13.9128 11.0565 13.2294 11.4037C12.5406 11.7564 12.265 12.5941 12.6122 13.2774Z" fill="#0033AD"/>
<path d="M23.5182 11.4973C23.7993 11.354 23.9095 11.0068 23.7662 10.7258C23.6229 10.4447 23.2757 10.3345 22.9947 10.4778C22.7136 10.6211 22.6034 10.9627 22.7412 11.2438C22.89 11.5249 23.2316 11.6406 23.5182 11.4973Z" fill="#0033AD"/>
<path d="M19.9912 11.9383C19.5889 12.1422 19.4236 12.6327 19.6275 13.035C19.8314 13.4373 20.3219 13.6026 20.7242 13.3987C21.1265 13.1948 21.2918 12.7043 21.0879 12.302C20.884 11.8997 20.3935 11.7399 19.9912 11.9383Z" fill="#0033AD"/>
<path d="M15.4448 7.08873C15.7589 7.10526 16.0289 6.86278 16.051 6.54866C16.073 6.23454 15.825 5.96451 15.5109 5.94247C15.1968 5.92593 14.9268 6.1629 14.9047 6.47702C14.8882 6.79665 15.1307 7.06668 15.4448 7.08873Z" fill="#0033AD"/>
<path d="M15.4393 10.6874C15.8912 10.715 16.2769 10.3678 16.299 9.91592C16.3265 9.46402 15.9793 9.07826 15.5275 9.05622C15.0756 9.02867 14.6898 9.37585 14.6678 9.82774C14.6457 10.2796 14.9874 10.6654 15.4393 10.6874Z" fill="#0033AD"/>
<path d="M11.0085 19.0417C11.4108 18.8378 11.5761 18.3474 11.3722 17.9451C11.1683 17.5428 10.6778 17.3775 10.2755 17.5814C9.87323 17.7853 9.7079 18.2757 9.91181 18.678C10.1157 19.0803 10.6062 19.2456 11.0085 19.0417Z" fill="#0033AD"/>
<path d="M15.9682 11.8831C15.5494 12.5279 15.7258 13.3876 16.3705 13.8064C17.0153 14.2252 17.875 14.0489 18.2938 13.4041C18.7126 12.7593 18.5363 11.8997 17.8915 11.4808C17.6656 11.332 17.4011 11.2549 17.131 11.2549C16.6626 11.2549 16.2272 11.4918 15.9682 11.8831Z" fill="#0033AD"/>
<path d="M18.3875 17.7026C18.0404 17.0137 17.2027 16.7382 16.5194 17.0854C15.8305 17.4325 15.555 18.2702 15.9021 18.9535C16.2493 19.6424 17.087 19.9179 17.7703 19.5708C18.4537 19.2291 18.7347 18.4025 18.393 17.7136C18.393 17.7081 18.393 17.7081 18.3875 17.7026Z" fill="#0033AD"/>
<path d="M20.8179 17.6036C20.4376 17.3556 19.9306 17.4603 19.6882 17.8405C19.4402 18.2208 19.5449 18.7278 19.9251 18.9703C20.3054 19.2183 20.8124 19.1136 21.0549 18.7333C21.3029 18.3586 21.1981 17.8516 20.8179 17.6036Z" fill="#0033AD"/>
<path d="M23.4851 15.5149C23.5072 15.1291 23.2151 14.804 22.8293 14.7819C22.4436 14.7599 22.1184 15.052 22.0964 15.4377C22.0743 15.8235 22.3664 16.1486 22.7522 16.1707C23.1324 16.1927 23.4631 15.8951 23.4851 15.5149Z" fill="#0033AD"/>
<path d="M25.4085 15.0188C25.1605 15.0023 24.9456 15.1952 24.9345 15.4431C24.9235 15.6911 25.1109 15.9061 25.3589 15.9171C25.6069 15.9336 25.8163 15.7407 25.8328 15.4927C25.8438 15.2448 25.6565 15.0353 25.4085 15.0188Z" fill="#0033AD"/>
<path d="M23.5954 19.4827C23.3308 19.3119 22.9781 19.3835 22.8018 19.648C22.631 19.9126 22.7026 20.2652 22.9671 20.4416C23.2316 20.6124 23.5843 20.5408 23.7607 20.2763C23.937 20.0117 23.8599 19.6535 23.5954 19.4827Z" fill="#0033AD"/>
<path d="M10.8211 23.6819C10.6117 23.5441 10.3362 23.6048 10.1984 23.8087C10.0606 24.0181 10.1212 24.2936 10.3251 24.4314C10.5346 24.5692 10.8101 24.5085 10.9479 24.3046C11.0912 24.1007 11.0305 23.8197 10.8211 23.6819Z" fill="#0033AD"/>
<path d="M20.2557 23.6379C20.0353 23.7481 19.9471 24.0236 20.0573 24.2441C20.1676 24.4645 20.4431 24.5527 20.6635 24.4425C20.884 24.3322 20.9721 24.0622 20.8619 23.8418C20.7517 23.6158 20.4817 23.5221 20.2557 23.6379C20.2612 23.6379 20.2557 23.6379 20.2557 23.6379Z" fill="#0033AD"/>
<path d="M15.0315 19.0969C15.4503 18.4521 15.274 17.5924 14.6292 17.1681C13.9844 16.7492 13.1247 16.9256 12.7004 17.5704C12.2761 18.2151 12.4579 19.0748 13.1027 19.4992C13.3286 19.648 13.5932 19.7251 13.8632 19.7251C14.3371 19.7306 14.7725 19.4937 15.0315 19.0969Z" fill="#0033AD"/>
<path d="M12.2484 21.2296C11.9288 21.0201 11.4934 21.1083 11.284 21.4279C11.0746 21.7476 11.1628 22.1829 11.4824 22.3923C11.802 22.6018 12.2374 22.5136 12.4468 22.194C12.6617 21.8743 12.5735 21.439 12.2484 21.2296Z" fill="#0033AD"/>
<path d="M15.4943 23.8914C15.1802 23.8749 14.9101 24.1174 14.8881 24.4315C14.866 24.7456 15.114 25.0156 15.4281 25.0377C15.7423 25.0542 16.0123 24.8172 16.0343 24.5031C16.0509 24.1835 15.8084 23.9135 15.4943 23.8914Z" fill="#0033AD"/>
<path d="M15.4999 20.2928C15.048 20.2652 14.6622 20.6124 14.6402 21.0643C14.6127 21.5162 14.9598 21.902 15.4117 21.924C15.8636 21.9461 16.2494 21.6044 16.2714 21.1525C16.299 20.7061 15.9518 20.3148 15.4999 20.2928Z" fill="#0033AD"/>
<path d="M18.845 21.1746C18.5033 21.351 18.3655 21.7698 18.5419 22.1115C18.7182 22.4531 19.137 22.5909 19.4787 22.4146C19.8204 22.2437 19.9581 21.8249 19.7873 21.4832C19.611 21.1416 19.1921 20.9983 18.845 21.1746Z" fill="#0033AD"/>
</svg>
