<svg width="31" height="31" viewBox="0 0 31 31" fill="none" xmlns="http://www.w3.org/2000/svg">
<path d="M30.5328 19.2495C28.4626 27.5532 20.0524 32.6066 11.7478 30.536C3.4466 28.4658 -1.60684 20.055 0.464202 11.7521C2.53343 3.44749 10.9437 -1.60632 19.2457 0.463813C27.5498 2.53395 32.6029 10.9456 30.5326 19.2497L30.5327 19.2495H30.5328Z" fill="#F3BA2F"/>
<path fill-rule="evenodd" clip-rule="evenodd" d="M15.5 9.83741L11.4863 13.851L11.4864 13.8509L9.15118 11.5155L15.5 5.16675L21.8508 11.5174L19.5155 13.8528L15.5 9.83741ZM7.50204 13.1643L5.16663 15.5001L7.50188 17.835L9.83729 15.4996L7.50204 13.1643ZM11.4863 17.1494L15.4999 21.1627L19.5154 17.1475L21.852 19.4816L21.8508 19.4828L15.4999 25.8334L9.15114 19.4846L9.14784 19.4813L11.4863 17.1494ZM23.498 13.1657L21.1626 15.5011L23.4979 17.8363L25.8333 15.5009L23.498 13.1657Z" fill="white"/>
<path d="M17.8686 15.4989H17.8695L15.5 13.1292L13.7485 14.8801L13.5473 15.0814L13.1323 15.4965L13.129 15.4997L13.1323 15.5031L15.5 17.8711L17.8697 15.5014L17.8709 15.5L17.8687 15.4989" fill="white"/>
</svg>
