<svg width="32" height="32" viewBox="0 0 32 32" fill="none" xmlns="http://www.w3.org/2000/svg">
<path d="M31.5213 19.8706C29.3844 28.4422 20.7028 33.6587 12.1302 31.5212C3.56122 29.3843 -1.65527 20.7021 0.482597 12.1312C2.61859 3.55873 11.3002 -1.65815 19.8701 0.478778C28.4421 2.61571 33.6582 11.2988 31.5211 19.8708L31.5212 19.8706H31.5213Z" fill="#F7931A"/>
<path fill-rule="evenodd" clip-rule="evenodd" d="M23.0571 13.7205C23.3755 11.5912 21.7544 10.4467 19.5377 9.68314L20.2569 6.79886L18.5011 6.36137L17.8011 9.16971C17.3395 9.05459 16.8655 8.94611 16.3944 8.83858L17.0995 6.01171L15.3448 5.57422L14.6253 8.45756C14.2434 8.37059 13.8682 8.28464 13.5042 8.19408L13.5063 8.185L11.085 7.58039L10.618 9.45563C10.618 9.45563 11.9206 9.75423 11.8932 9.77261C12.6041 9.95006 12.7327 10.4207 12.7114 10.7938L11.8922 14.0796C11.9412 14.0921 12.0047 14.11 12.0748 14.1382L12.0238 14.1255L12.0237 14.1255C11.9804 14.1146 11.9354 14.1034 11.8892 14.0923L10.741 18.6953C10.6541 18.9113 10.4336 19.2355 9.9365 19.1124C9.95409 19.1379 8.66039 18.7939 8.66039 18.7939L7.7887 20.8037L10.0735 21.3733C10.3237 21.436 10.571 21.5005 10.8157 21.5643C10.9868 21.6089 11.1566 21.6531 11.3253 21.6963L10.5988 24.6136L12.3525 25.0511L13.072 22.1647C13.5511 22.2948 14.016 22.4148 14.4712 22.5279L13.7541 25.4006L15.5099 25.8381L16.2364 22.9262C19.2303 23.4929 21.4815 23.2644 22.4291 20.5564C23.1926 18.3762 22.391 17.1186 20.816 16.2985C21.9632 16.0339 22.8273 15.2794 23.0577 13.7207L23.0571 13.7203L23.0571 13.7205ZM19.0456 19.3456C18.5478 21.3459 15.4168 20.5189 13.9842 20.1406L13.9841 20.1405C13.8553 20.1065 13.7402 20.0761 13.642 20.0517L14.6061 16.1867C14.7258 16.2166 14.8721 16.2495 15.0378 16.2866L15.0378 16.2867C16.5197 16.6192 19.5557 17.3005 19.0457 19.3456H19.0456ZM15.3349 14.4929C16.5292 14.8116 19.1346 15.5069 19.5884 13.6889H19.5885C20.0519 11.8295 17.5198 11.2689 16.2832 10.9951C16.1441 10.9643 16.0213 10.9372 15.9211 10.9122L15.047 14.4175C15.1295 14.4381 15.2264 14.4639 15.3349 14.4929Z" fill="white"/>
</svg>
