<svg width="31" height="31" viewBox="0 0 31 31" fill="none" xmlns="http://www.w3.org/2000/svg">
<circle cx="15.6292" cy="15.3709" r="13.8208" fill="white"/>
<path fill-rule="evenodd" clip-rule="evenodd" d="M0 15.5C0 6.93959 6.93956 0 15.4999 0H15.59C19.6889 0.011927 23.6152 1.65166 26.5051 4.55848C29.395 7.4653 31.0118 11.4011 30.9999 15.5C30.9999 24.0604 24.0603 31 15.4999 31C6.93956 31 0 24.0604 0 15.5ZM14.1488 21.4673L15.7626 16.0254L18.2772 15.3123L18.8026 13.5109L16.3256 14.2615L18.9527 5.3293V5.18668C18.9488 5.0712 18.8991 4.96201 18.8146 4.88316C18.7302 4.80432 18.6178 4.76229 18.5023 4.76634H15.1622C14.902 4.75832 14.6698 4.9286 14.5992 5.17918L11.4842 15.7627L9.00722 16.5133L8.44427 18.2397L10.9213 17.4891L8.70698 25.0327H21.9176C22.1786 25.0435 22.4124 24.8721 22.4805 24.6199L23.2311 22.0303V21.8877C23.2272 21.7722 23.1776 21.663 23.0931 21.5841C23.0086 21.5053 22.8963 21.4633 22.7808 21.4673H14.1488Z" fill="#345D9D"/>
</svg>
