<svg width="31" height="31" viewBox="0 0 31 31" fill="none" xmlns="http://www.w3.org/2000/svg">
<path d="M15.5 31C24.0896 31 31 24.0896 31 15.5C31 6.91037 24.0896 0 15.5 0C6.91037 0 0 6.91037 0 15.5C0 24.0896 6.91037 31 15.5 31Z" fill="#2775CA"/>
<path d="M19.7625 17.9542C19.7625 15.6938 18.4063 14.9188 15.6938 14.5959C13.7563 14.3375 13.3688 13.8209 13.3688 12.9167C13.3688 12.0124 14.0146 11.4313 15.3063 11.4313C16.4688 11.4313 17.1146 11.8188 17.4375 12.7875C17.5021 12.9813 17.6959 13.1104 17.8896 13.1104H18.9229C19.1813 13.1104 19.375 12.9167 19.375 12.6584V12.5938C19.1166 11.1729 17.9541 10.075 16.4688 9.94592V8.39592C16.4688 8.13754 16.275 7.94379 15.9521 7.87915H14.9834C14.725 7.87915 14.5313 8.0729 14.4666 8.39592V9.88129C12.5291 10.1397 11.3021 11.4313 11.3021 13.0459C11.3021 15.1772 12.5938 16.0167 15.3063 16.3397C17.1146 16.6625 17.6959 17.05 17.6959 18.0834C17.6959 19.1168 16.7916 19.8272 15.5646 19.8272C13.8854 19.8272 13.3041 19.1166 13.1104 18.1479C13.0459 17.8897 12.8521 17.7604 12.6584 17.7604H11.5604C11.3021 17.7604 11.1084 17.9541 11.1084 18.2125V18.2772C11.3666 19.8917 12.4 21.0542 14.5313 21.3772V22.9272C14.5313 23.1854 14.725 23.3791 15.0479 23.4438H16.0166C16.275 23.4438 16.4688 23.25 16.5334 22.9272V21.3772C18.4709 21.0542 19.7625 19.6979 19.7625 17.9542Z" fill="white"/>
<path fill-rule="evenodd" clip-rule="evenodd" d="M6.45842 12.3355C4.5854 17.3085 7.16879 22.9272 12.2063 24.7355C12.4 24.8647 12.5938 25.123 12.5938 25.3167V26.221C12.5938 26.3501 12.5938 26.4147 12.5292 26.4792C12.4647 26.7376 12.2063 26.8667 11.9479 26.7376C8.33129 25.5751 5.55415 22.798 4.39165 19.1814C2.45415 13.046 5.81254 6.52298 11.9479 4.58548C12.0125 4.521 12.1417 4.521 12.2063 4.521C12.4647 4.58548 12.5938 4.77923 12.5938 5.03761V5.94173C12.5938 6.26475 12.4647 6.4585 12.2063 6.58761C9.55842 7.55636 7.42717 9.62298 6.45842 12.3355ZM18.4709 4.84386C18.5354 4.58548 18.7937 4.45636 19.0521 4.58548C22.6041 5.74798 25.4459 8.52511 26.6084 12.2064C28.5459 18.3417 25.1875 24.8647 19.0521 26.8022C18.9875 26.8667 18.8584 26.8667 18.7937 26.8667C18.5354 26.8022 18.4062 26.6085 18.4062 26.3501V25.446C18.4062 25.123 18.5354 24.9292 18.7937 24.8001C21.4416 23.8314 23.5729 21.7647 24.5416 19.0522C26.4146 14.0792 23.8313 8.46048 18.7937 6.65225C18.6 6.52298 18.4062 6.26475 18.4062 6.00636V5.10225C18.4062 4.97298 18.4062 4.9085 18.4709 4.84386Z" fill="white"/>
</svg>
