<svg width="31" height="31" viewBox="0 0 31 31" fill="none" xmlns="http://www.w3.org/2000/svg">
<path d="M30.5328 19.2495C28.4626 27.5532 20.0524 32.6066 11.7478 30.536C3.4466 28.4658 -1.60684 20.055 0.464202 11.7521C2.53343 3.44749 10.9437 -1.60632 19.2457 0.463813C27.5498 2.53395 32.6029 10.9456 30.5326 19.2497L30.5327 19.2495H30.5328Z" fill="#50AF95"/>
<path fill-rule="evenodd" clip-rule="evenodd" d="M17.4614 17.2572C17.3518 17.2654 16.7855 17.2992 15.5224 17.2992C14.5177 17.2992 13.8044 17.2691 13.5542 17.2572C9.67164 17.0864 6.77366 16.4105 6.77366 15.6013C6.77366 14.7921 9.67164 14.1172 13.5542 13.9436V16.5841C13.8081 16.6023 14.5351 16.6453 15.5398 16.6453C16.7453 16.6453 17.3491 16.595 17.4577 16.585V13.9455C21.3321 14.1181 24.2237 14.7939 24.2237 15.6013C24.2237 16.4087 21.333 17.0846 17.4577 17.2563L17.4614 17.2572ZM17.4614 13.6724V11.3096H22.8683V7.70654H8.1473V11.3096H13.5533V13.6715C9.15927 13.8733 5.85486 14.7437 5.85486 15.7867C5.85486 16.8297 9.15927 17.6992 13.5533 17.902V25.4735H17.4605V17.8993C21.8444 17.6974 25.1434 16.8279 25.1434 15.7858C25.1434 14.7437 21.8472 13.8742 17.4605 13.6715L17.4614 13.6724Z" fill="white"/>
</svg>
