<svg width="31" height="31" viewBox="0 0 31 31" fill="none" xmlns="http://www.w3.org/2000/svg">
<path d="M30.5328 19.2495C28.4626 27.5532 20.0524 32.6066 11.7478 30.536C3.4466 28.4658 -1.60684 20.055 0.464202 11.7521C2.53343 3.44749 10.9437 -1.60632 19.2457 0.463813C27.5498 2.53395 32.6029 10.9456 30.5326 19.2497L30.5327 19.2495H30.5328Z" fill="#23292F"/>
<path d="M23.1213 6.45825H26.2492L19.7398 12.9034C17.3825 15.2362 13.5606 15.2362 11.2016 12.9034L4.6897 6.45825H7.82011L12.7655 11.3542C14.2648 12.8319 16.6728 12.8319 18.1721 11.3542L23.1213 6.45825Z" fill="white"/>
<path d="M7.78001 24.3802H4.65002L11.2017 17.8954C13.559 15.5626 17.3809 15.5626 19.7399 17.8954L26.2915 24.3802H23.1637L18.176 19.4445C16.6767 17.9668 14.2687 17.9668 12.7694 19.4445L7.78001 24.3802Z" fill="white"/>
</svg>
